<?xml version="1.0" encoding="utf-8" ?>
<svg baseProfile="full" height="858px" version="1.1" width="1193px" xmlns="http://www.w3.org/2000/svg" xmlns:ev="http://www.w3.org/2001/xml-events" xmlns:xlink="http://www.w3.org/1999/xlink"><defs /><circle cx="591" cy="429" fill="#CFE5FE" r="400.0" /><circle cx="591" cy="429" fill="#8DC0FD" r="300.0" /><circle cx="591" cy="429" fill="#51A0FA" r="200.0" /><circle cx="591" cy="429" fill="#0B82F4" r="100.0" /><line stroke="white" stroke-width="1" x1="991.0" x2="191.0" y1="429.0" y2="429.0" /><line stroke="white" stroke-width="1" x1="791.0" x2="390.99999999999994" y1="82.58983848622455" y2="775.4101615137754" /><line stroke="white" stroke-width="1" x1="391.0000000000001" x2="790.9999999999999" y1="82.5898384862245" y2="775.4101615137755" /><line stroke="black" stroke-width="1" x1="591.0" x2="600.0" y1="279.0" y2="279.0" /><line stroke="black" stroke-width="1" x1="591.0" x2="600.0" y1="379.0" y2="379.0" /><line stroke="black" stroke-width="1" x1="720.9038105676658" x2="729.9038105676658" y1="354.0" y2="354.0" /><line stroke="black" stroke-width="1" x1="807.5063509461097" x2="816.5063509461097" y1="554.0" y2="554.0" /><line stroke="black" stroke-width="1" x1="591.0" x2="600.0" y1="479.0" y2="479.0" /><line stroke="black" stroke-width="1" x1="461.0961894323342" x2="452.0961894323342" y1="504.0" y2="504.0" /><line stroke="black" stroke-width="1" x1="374.49364905389035" x2="365.49364905389035" y1="304.0" y2="304.0" /><line stroke="black" stroke-width="1" x1="461.0961894323342" x2="452.0961894323342" y1="354.0" y2="354.0" /><circle cx="591.0" cy="279.0" fill="white" r="4" /><circle cx="591.0" cy="379.0" fill="white" r="4" /><circle cx="720.9038105676658" cy="354.0" fill="white" r="4" /><circle cx="807.5063509461097" cy="554.0" fill="white" r="4" /><circle cx="591.0" cy="479.0" fill="white" r="4" /><circle cx="461.0961894323342" cy="504.0" fill="white" r="4" /><circle cx="374.49364905389035" cy="304.0" fill="white" r="4" /><circle cx="461.0961894323342" cy="354.0" fill="white" r="4" /><rect fill="white" height="16" rx="8.0" ry="8.0" width="280.0" x="600.0" y="271.0" /><rect fill="white" height="16" rx="8.0" ry="8.0" width="160.0" x="600.0" y="371.0" /><rect fill="white" height="16" rx="8.0" ry="8.0" width="214.0" x="729.9038105676658" y="346.0" /><rect fill="white" height="16" rx="8.0" ry="8.0" width="214.0" x="816.5063509461097" y="546.0" /><rect fill="white" height="16" rx="8.0" ry="8.0" width="184.0" x="600.0" y="471.0" /><rect fill="white" height="16" rx="8.0" ry="8.0" width="286.0" x="166.0961894323342" y="496.0" /><rect fill="white" height="16" rx="8.0" ry="8.0" width="196.0" x="169.49364905389035" y="296.0" /><rect fill="white" height="16" rx="8.0" ry="8.0" width="88.0" x="364.0961894323342" y="346.0" /><text dominant-baseline="middle" fill="black" font-size="12" text-anchor="start" x="605.0" y="279.0">Искусственный интеллект в управлении знаниями</text><text dominant-baseline="middle" fill="black" font-size="12" text-anchor="start" x="605.0" y="379.0">Облачные хранилища знаний</text><text dominant-baseline="middle" fill="black" font-size="12" text-anchor="start" x="734.9038105676658" y="354.0">Гибкие методологии обмена знаниями</text><text dominant-baseline="middle" fill="black" font-size="12" text-anchor="start" x="821.5063509461097" y="554.0">Культура открытого обмена знаниями</text><text dominant-baseline="middle" fill="black" font-size="12" text-anchor="start" x="605.0" y="479.0">Стандарты безопасности данных</text><text dominant-baseline="middle" fill="black" font-size="12" text-anchor="end" x="447.0961894323342" y="504.0">Стратегическое лидерство в управлении знаниями</text><text dominant-baseline="middle" fill="black" font-size="12" text-anchor="end" x="360.49364905389035" y="304.0">Интеграция с системами обучения</text><text dominant-baseline="middle" fill="black" font-size="12" text-anchor="end" x="447.0961894323342" y="354.0">ИИ в медицине</text><text dominant-baseline="middle" fill="#0B82F4" font-size="18" text-anchor="middle" x="591.0" y="9.0">Технологии</text><text dominant-baseline="middle" fill="#0B82F4" font-size="18" text-anchor="start" x="954.7306695894642" y="219.00000000000003">Процессы и методологии</text><text dominant-baseline="middle" fill="#0B82F4" font-size="18" text-anchor="start" x="954.7306695894642" y="639.0">Культура и организация</text><text dominant-baseline="middle" fill="#0B82F4" font-size="18" text-anchor="middle" x="591.0" y="849.0">Стандарты и безопасность</text><text dominant-baseline="middle" fill="#0B82F4" font-size="18" text-anchor="end" x="227.26933041053576" y="639.0">Лидерство и стратегия</text><text dominant-baseline="middle" fill="#0B82F4" font-size="18" text-anchor="end" x="227.26933041053582" y="218.99999999999994">Другое</text></svg>