<?xml version="1.0" encoding="utf-8" ?>
<svg baseProfile="full" height="829px" version="1.1" width="1063px" xmlns="http://www.w3.org/2000/svg" xmlns:ev="http://www.w3.org/2001/xml-events" xmlns:xlink="http://www.w3.org/1999/xlink"><defs /><circle cx="591" cy="400" fill="#CFE5FE" r="400.0" /><circle cx="591" cy="400" fill="#8DC0FD" r="300.0" /><circle cx="591" cy="400" fill="#51A0FA" r="200.0" /><circle cx="591" cy="400" fill="#0B82F4" r="100.0" /><line stroke="white" stroke-width="1" x1="991.0" x2="191.0" y1="400.0" y2="400.0" /><line stroke="white" stroke-width="1" x1="791.0" x2="390.99999999999994" y1="53.58983848622455" y2="746.4101615137754" /><line stroke="white" stroke-width="1" x1="391.0000000000001" x2="790.9999999999999" y1="53.589838486224494" y2="746.4101615137755" /><line stroke="black" stroke-width="1" x1="591.0" x2="600.0" y1="150.0" y2="150.0" /><line stroke="black" stroke-width="1" x1="713.8728066433488" x2="722.8728066433488" y1="486.0364654526569" y2="486.0364654526569" /><line stroke="black" stroke-width="1" x1="726.9461680554975" x2="735.9461680554975" y1="463.3927392611049" y2="463.3927392611049" /><line stroke="black" stroke-width="1" x1="631.9576022144496" x2="640.9576022144496" y1="428.6788218175523" y2="428.6788218175523" /><line stroke="black" stroke-width="1" x1="636.3153893518324" x2="645.3153893518324" y1="421.13091308703497" y2="421.13091308703497" /><line stroke="black" stroke-width="1" x1="547.6987298107781" x2="538.6987298107781" y1="425.0" y2="425.0" /><line stroke="black" stroke-width="1" x1="782.5111107797445" x2="791.5111107797445" y1="560.6969024216348" y2="560.6969024216348" /><line stroke="black" stroke-width="1" x1="807.5063509461097" x2="816.5063509461097" y1="525.0" y2="525.0" /><line stroke="black" stroke-width="1" x1="825.9231551964771" x2="834.9231551964771" y1="485.50503583141716" y2="485.50503583141716" /><line stroke="black" stroke-width="1" x1="591.0" x2="600.0" y1="250.0" y2="250.0" /><circle cx="591.0" cy="150.0" fill="white" r="4" /><circle cx="713.8728066433488" cy="486.0364654526569" fill="white" r="4" /><circle cx="726.9461680554975" cy="463.3927392611049" fill="white" r="4" /><circle cx="631.9576022144496" cy="428.6788218175523" fill="white" r="4" /><circle cx="636.3153893518324" cy="421.13091308703497" fill="white" r="4" /><circle cx="547.6987298107781" cy="425.0" fill="white" r="4" /><circle cx="782.5111107797445" cy="560.6969024216348" fill="white" r="4" /><circle cx="807.5063509461097" cy="525.0" fill="white" r="4" /><circle cx="825.9231551964771" cy="485.50503583141716" fill="white" r="4" /><circle cx="591.0" cy="250.0" fill="white" r="4" /><rect fill="white" height="16" rx="8.0" ry="8.0" width="46.0" x="600.0" y="142.0" /><rect fill="white" height="16" rx="8.0" ry="8.0" width="94.0" x="722.8728066433488" y="478.0364654526569" /><rect fill="white" height="16" rx="8.0" ry="8.0" width="88.0" x="735.9461680554975" y="455.3927392611049" /><rect fill="white" height="16" rx="8.0" ry="8.0" width="94.0" x="640.9576022144496" y="420.6788218175523" /><rect fill="white" height="16" rx="8.0" ry="8.0" width="148.0" x="645.3153893518324" y="413.13091308703497" /><rect fill="white" height="16" rx="8.0" ry="8.0" width="46.0" x="492.6987298107781" y="417.0" /><rect fill="white" height="16" rx="8.0" ry="8.0" width="82.0" x="791.5111107797445" y="552.6969024216348" /><rect fill="white" height="16" rx="8.0" ry="8.0" width="64.0" x="816.5063509461097" y="517.0" /><rect fill="white" height="16" rx="8.0" ry="8.0" width="88.0" x="834.9231551964771" y="477.50503583141716" /><rect fill="white" height="16" rx="8.0" ry="8.0" width="268.0" x="600.0" y="242.0" /><text dominant-baseline="middle" fill="black" font-size="12" text-anchor="start" x="605.0" y="150.0">Аааааа</text><text dominant-baseline="middle" fill="black" font-size="12" text-anchor="start" x="727.8728066433488" y="486.0364654526569">AI engineering</text><text dominant-baseline="middle" fill="black" font-size="12" text-anchor="start" x="740.9461680554975" y="463.3927392611049">Метавселенная</text><text dominant-baseline="middle" fill="black" font-size="12" text-anchor="start" x="645.9576022144496" y="428.6788218175523">ИИ рефакторинг</text><text dominant-baseline="middle" fill="black" font-size="12" text-anchor="start" x="650.3153893518324" y="421.13091308703497">Искусственный интеллект</text><text dominant-baseline="middle" fill="black" font-size="12" text-anchor="end" x="533.6987298107781" y="425.0">Ададад</text><text dominant-baseline="middle" fill="black" font-size="12" text-anchor="start" x="796.5111107797445" y="560.6969024216348">Три два один</text><text dominant-baseline="middle" fill="black" font-size="12" text-anchor="start" x="821.5063509461097" y="525.0">адададада</text><text dominant-baseline="middle" fill="black" font-size="12" text-anchor="start" x="839.9231551964771" y="485.50503583141716">Ии в медицине</text><text dominant-baseline="middle" fill="black" font-size="12" text-anchor="start" x="605.0" y="250.0">Методология разработки проекта с помощью ИИ</text><text dominant-baseline="middle" fill="#0B82F4" font-size="18" text-anchor="middle" x="591.0" y="-20.0">Процессы и методологии</text><text dominant-baseline="middle" fill="#0B82F4" font-size="18" text-anchor="start" x="954.7306695894642" y="610.0">Технологии</text><text dominant-baseline="middle" fill="#0B82F4" font-size="18" text-anchor="end" x="227.26933041053576" y="610.0">Лидерство и стратегия</text></svg>